<svg width="431" height="82" viewBox="0 0 431 82" fill="none" xmlns="http://www.w3.org/2000/svg">
<path d="M40.2176 0.966797C28.6036 0.966797 0 29.5695 0 41.1839C0 52.7984 28.6036 81.4015 40.2176 81.4015C51.8315 81.4015 80.4356 52.7979 80.4356 41.1839C80.4356 29.57 51.832 0.966797 40.2176 0.966797ZM33.9503 64.1814C29.0529 62.8469 15.8856 39.8141 17.2203 34.9167C18.5551 30.019 41.5876 16.8521 46.4851 18.1869C51.3828 19.5214 64.5501 42.5537 63.2153 47.4514C61.8806 52.3491 38.8478 65.5162 33.9503 64.1814Z" fill="#836EF9"/>
<path d="M139.112 51.8504V51.8357L116.258 9.68474C115.808 8.85506 114.565 9.05377 114.396 9.98233L103.015 72.5836C102.903 73.1971 103.374 73.7618 103.998 73.7618H112.804C113.287 73.7618 113.701 73.4162 113.787 72.9408L120.415 36.4141L138.23 70.3773C138.605 71.0909 139.626 71.0909 140.001 70.3773L157.816 36.4141L164.444 72.9408C164.53 73.4162 164.944 73.7618 165.427 73.7618H174.233C174.856 73.7618 175.328 73.1971 175.216 72.5836L163.835 9.98233C163.666 9.05377 162.423 8.85506 161.973 9.68474L139.112 51.8504Z" fill="#200052"/>
<path d="M212.243 10.8645C194.115 10.8645 179.914 24.9514 179.914 42.9384C179.914 60.9254 194.115 75.0202 212.243 75.0202C230.324 75.0202 244.489 60.9293 244.489 42.9384C244.489 24.9475 230.324 10.8645 212.243 10.8645ZM212.243 64.2806C200.421 64.2806 191.159 54.9049 191.159 42.9384C191.159 30.9719 200.421 21.6041 212.243 21.6041C224.017 21.6041 233.244 30.9758 233.244 42.9384C233.244 54.901 224.017 64.2806 212.243 64.2806Z" fill="#200052"/>
<path d="M294.316 50.2952L256.409 9.49436C255.79 8.82898 254.677 9.2664 254.677 10.1746V72.7623C254.677 73.3143 255.124 73.7618 255.676 73.7618H264.841C265.393 73.7618 265.84 73.3143 265.84 72.7623V35.5105L303.663 76.3885C304.281 77.0558 305.396 76.6189 305.396 75.7097V13.1218C305.396 12.5698 304.949 12.1224 304.397 12.1224H295.315C294.763 12.1224 294.316 12.5698 294.316 13.1218V50.2952Z" fill="#200052"/>
<path d="M315.114 73.762H324.954C325.344 73.762 325.698 73.5354 325.861 73.1816L333.233 57.2175H356.805L364.01 73.1739C364.172 73.5319 364.528 73.762 364.921 73.762H375.598C376.335 73.762 376.818 72.9914 376.498 72.3278L346.256 9.74392C345.892 8.99112 344.82 8.99112 344.456 9.74392L314.214 72.3278C313.893 72.9914 314.377 73.762 315.114 73.762ZM337.854 47.3127L345.18 31.4148L352.368 47.3127H337.854Z" fill="#200052"/>
<path d="M400.384 12.1225H385.262C384.71 12.1225 384.263 12.57 384.263 13.1219V72.7624C384.263 73.3144 384.71 73.7619 385.262 73.7619H400.384C419.132 73.7619 430.781 61.9521 430.781 42.9382C430.781 23.9244 419.132 12.1225 400.384 12.1225ZM400.384 63.1868H395.508V22.6152H400.384C412.555 22.6152 419.535 30.0232 419.535 42.9382C419.535 55.8062 412.555 63.1868 400.384 63.1868Z" fill="#200052"/>
</svg>
